<svg xmlns="http://www.w3.org/2000/svg" xmlns:xlink="http://www.w3.org/1999/xlink" version="1.1" id="Wifi" x="0px" y="0px" viewBox="0 0 1920 1080" style="enable-background:new 0 0 1920 1080;" xml:space="preserve">
<style type="text/css">
	.st0{opacity:0.1;fill:#2A94F4;}
	.st1{fill:#FFBE55;}
	.st2{fill:#0B4870;}
	.st3{fill:#0E538C;}
	.st4{fill:#CCE9FF;}
</style>
<g>
	<ellipse class="st0" cx="960" cy="992.27" rx="603.61" ry="85.18"/>
	<g>
		<g>
			<path class="st1" d="M475.08,306.88c-13.24,0-26.48-5.05-36.58-15.15c-20.2-20.21-20.2-52.96,0-73.16     C577.79,79.26,763,2.55,960,2.55c197,0,382.21,76.72,521.51,216.01c20.2,20.2,20.2,52.96,0,73.16c-20.2,20.2-52.96,20.2-73.16,0     c-247.22-247.22-649.47-247.22-896.68,0C501.56,301.83,488.32,306.88,475.08,306.88z"/>
		</g>
		<g>
			<path class="st1" d="M1292.14,459.67c-13.24,0-26.48-5.05-36.58-15.15c-162.97-162.97-428.14-162.97-591.12,0     c-20.2,20.21-52.96,20.21-73.16,0c-20.21-20.21-20.2-52.96,0-73.16c203.31-203.31,534.13-203.31,737.44,0     c20.2,20.2,20.2,52.96,0,73.16C1318.62,454.61,1305.38,459.67,1292.14,459.67z"/>
		</g>
		<g>
			<path class="st1" d="M1146,605.81c-13.24,0-26.48-5.05-36.58-15.15c-82.39-82.39-216.44-82.39-298.83,0     c-20.2,20.21-52.96,20.21-73.16,0c-20.21-20.21-20.2-52.96,0-73.16c122.74-122.73,322.43-122.73,445.16,0     c20.2,20.2,20.2,52.96,0,73.16C1172.48,600.75,1159.24,605.8,1146,605.81z"/>
		</g>
		
			<ellipse transform="matrix(0.7071 -0.7071 0.7071 0.7071 -242.1308 895.5844)" class="st1" cx="960" cy="740.07" rx="76.55" ry="76.82"/>
	</g>
	<g>
		<path class="st2" d="M1508.3,905.78l-20.63,82.88c0,0-349.82,32.88-553.2,32.88s-502.13-32.88-502.13-32.88l-20.63-82.88H1508.3z"/>
		<g>
			<path class="st2" d="M1451.47,262.49l27.52,11.29c7.15,2.93,10.57,11.1,7.63,18.25l-247.14,602.61     c-2.93,7.15-11.1,10.57-18.25,7.63l-27.52-11.29c-7.15-2.93-10.57-11.1-7.63-18.25l247.14-602.61     C1436.15,262.98,1444.32,259.56,1451.47,262.49z"/>
		</g>
		<g>
			<path class="st2" d="M945.36,180.82l29.75,0.02c7.73,0.01,13.98,6.27,13.98,14l-0.45,651.32c-0.01,7.73-6.27,13.98-14,13.98     l-29.75-0.02c-7.73-0.01-13.98-6.27-13.98-14l0.45-651.32C931.37,187.07,937.63,180.81,945.36,180.82z"/>
		</g>
		<g>
			<path class="st2" d="M468.53,262.49l-27.52,11.29c-7.15,2.93-10.57,11.1-7.63,18.25l247.14,602.61     c2.93,7.15,11.1,10.57,18.25,7.63l27.52-11.29c7.15-2.93,10.57-11.1,7.63-18.25L486.78,270.12     C483.85,262.98,475.68,259.56,468.53,262.49z"/>
		</g>
		<path class="st3" d="M1563.61,758.78V918.2c0,0-283.98,30.41-603.61,30.41S356.39,918.2,356.39,918.2V758.78    c0,0,297-43.79,603.61-43.79S1563.61,758.78,1563.61,758.78z"/>
		<rect x="356.39" y="794.23" class="st2" width="1207.22" height="79.47"/>
		<g>
			<path class="st1" d="M684.38,843.87h-61.97c-2.65,0-4.8-2.15-4.8-4.8v-10.21c0-2.65,2.15-4.8,4.8-4.8h61.97     c2.65,0,4.8,2.15,4.8,4.8v10.21C689.18,841.72,687.03,843.87,684.38,843.87z"/>
			<path class="st4" d="M807.02,843.87h-61.97c-2.65,0-4.8-2.15-4.8-4.8v-10.21c0-2.65,2.15-4.8,4.8-4.8h61.97     c2.65,0,4.8,2.15,4.8,4.8v10.21C811.82,841.72,809.67,843.87,807.02,843.87z"/>
			<path class="st4" d="M929.67,843.87h-61.97c-2.65,0-4.8-2.15-4.8-4.8v-10.21c0-2.65,2.15-4.8,4.8-4.8h61.97     c2.65,0,4.8,2.15,4.8,4.8v10.21C934.47,841.72,932.32,843.87,929.67,843.87z"/>
			<path class="st4" d="M1052.31,843.87h-61.97c-2.65,0-4.8-2.15-4.8-4.8v-10.21c0-2.65,2.15-4.8,4.8-4.8h61.97     c2.65,0,4.8,2.15,4.8,4.8v10.21C1057.11,841.72,1054.96,843.87,1052.31,843.87z"/>
			<path class="st4" d="M1174.95,843.87h-61.97c-2.65,0-4.8-2.15-4.8-4.8v-10.21c0-2.65,2.15-4.8,4.8-4.8h61.97     c2.65,0,4.8,2.15,4.8,4.8v10.21C1179.75,841.72,1177.6,843.87,1174.95,843.87z"/>
			<path class="st4" d="M1297.6,843.87h-61.97c-2.65,0-4.8-2.15-4.8-4.8v-10.21c0-2.65,2.15-4.8,4.8-4.8h61.97     c2.65,0,4.8,2.15,4.8,4.8v10.21C1302.4,841.72,1300.25,843.87,1297.6,843.87z"/>
		</g>
	</g>
</g>
</svg>